<?xml version="1.0" encoding="UTF-8" standalone="no"?><!DOCTYPE svg PUBLIC "-//W3C//DTD SVG 1.1//EN" "http://www.w3.org/Graphics/SVG/1.1/DTD/svg11.dtd"><svg width="100%" height="100%" viewBox="0 0 200 60" version="1.1" xmlns="http://www.w3.org/2000/svg" xmlns:xlink="http://www.w3.org/1999/xlink" xml:space="preserve" style="fill-rule:evenodd;clip-rule:evenodd;stroke-linejoin:round;stroke-miterlimit:1.41421;"><g id="Layer-1"><path d="M27.465,15.472l-3.153,0l-10.288,17.915l-10.291,-17.915l-3.065,0l11.821,20.589l-12.489,21.748l3.398,0l10.736,-18.884l10.843,18.884l3.076,0l-12.392,-21.572l11.804,-20.765Z" style="fill:#000;fill-rule:nonzero;"/><path d="M42.319,56.125c-6.974,0 -10.465,-6.322 -10.465,-18.967c0,-12.589 3.491,-18.885 10.47,-18.885c1.825,0 3.403,0.464 4.76,1.385c2.726,1.874 4.154,4.943 4.28,9.216l2.855,0c-0.03,-2.692 -0.527,-4.989 -1.506,-6.881c-2.171,-4.266 -5.629,-6.397 -10.374,-6.397c-8.858,0 -13.286,6.807 -13.286,20.427c0,15.191 4.428,22.783 13.286,22.783c2.299,0 4.388,-0.666 6.252,-1.992c3.724,-2.652 5.714,-7.111 5.997,-13.375l-2.849,0c-0.43,8.458 -3.572,12.686 -9.42,12.686" style="fill:#000;fill-rule:nonzero;"/><path d="M80.501,34.203l-20.265,0c0.103,-2.814 0.483,-5.432 1.132,-7.851c1.455,-5.388 4.583,-8.078 9.376,-8.078c6.515,0 9.757,4.636 9.757,13.915l0,2.014ZM70.744,15.591c-8.874,0 -13.314,6.815 -13.314,20.43c0,15.193 4.429,22.783 13.295,22.783c2.298,0 4.382,-0.664 6.261,-1.993c3.72,-2.649 5.72,-7.105 5.987,-13.37l-2.849,0c-0.424,8.457 -3.565,12.687 -9.422,12.687c-6.878,0 -10.363,-6.412 -10.466,-19.246l23.071,0l0,-3.401c0,-11.919 -4.189,-17.89 -12.563,-17.89" style="fill:#000;fill-rule:nonzero;"/><rect x="88.682" y="1.194" width="2.806" height="56.592" style="fill:#000;fill-rule:nonzero;"/><path d="M109.52,35.523c-3.49,-1.434 -5.788,-2.576 -6.887,-3.454c-1.808,-1.449 -2.713,-3.405 -2.713,-5.889c0,-2.418 0.704,-4.347 2.114,-5.773c1.41,-1.418 3.343,-2.136 5.78,-2.136c5.193,0 7.785,2.861 7.785,8.582l0,1.941l2.803,0l0,-1.717c0,-7.654 -3.508,-11.484 -10.51,-11.484c-3.133,0 -5.703,0.944 -7.743,2.821c-2.018,1.872 -3.036,4.361 -3.036,7.463c0,3.229 0.967,5.784 2.902,7.66c1.352,1.327 3.712,2.672 7.079,4.057c3.517,1.421 5.806,2.587 6.892,3.485c1.75,1.477 2.631,3.536 2.631,6.194c0,2.672 -0.781,4.825 -2.338,6.435c-1.562,1.612 -3.69,2.42 -6.374,2.42c-5.835,0 -8.749,-3.343 -8.749,-10.005l0,-2.23l-2.808,0l0,1.986c0,8.622 3.899,12.924 11.712,12.924c2.37,0 4.42,-0.549 6.145,-1.647c3.478,-2.202 5.219,-5.537 5.219,-10.015c0,-3.194 -0.988,-5.747 -2.94,-7.647c-1.347,-1.3 -3.675,-2.627 -6.964,-3.971" style="fill:#000;fill-rule:nonzero;"/><rect x="124.188" y="1.194" width="2.804" height="9.047" style="fill:#000;fill-rule:nonzero;"/><rect x="124.188" y="16.489" width="2.804" height="41.294" style="fill:#000;fill-rule:nonzero;"/><path d="M146.212,56.126c-7.111,0 -10.669,-6.321 -10.669,-18.969c0,-12.589 3.558,-18.888 10.669,-18.888c2.486,0 4.499,0.665 6.023,1.992c3.07,2.681 4.594,8.308 4.594,16.896c0,12.648 -3.539,18.969 -10.617,18.969M146.212,15.595c-8.98,0 -13.466,7.187 -13.466,21.55c0,14.442 4.486,21.661 13.466,21.661c8.945,0 13.427,-7.219 13.427,-21.661c0,-14.363 -4.482,-21.55 -13.427,-21.55" style="fill:#000;fill-rule:nonzero;"/><path d="M177.443,15.592c-4.352,0 -7.564,1.887 -9.64,5.645l0,-4.747l-2.811,0l0,41.296l2.811,0l0,-26.119c0,-3.495 0.713,-6.455 2.133,-8.906c1.748,-2.992 4.251,-4.49 7.507,-4.49l2.213,0l0,-2.679l-2.213,0Z" style="fill:#000;fill-rule:nonzero;"/><path d="M200,8.368c0,3.943 -3.197,7.14 -7.139,7.14c-3.943,0 -7.14,-3.197 -7.14,-7.14c0,-3.943 3.197,-7.139 7.14,-7.139c3.942,0 7.139,3.196 7.139,7.139" style="fill:#000;fill-rule:nonzero;"/><path d="M193.434,8.213l3.426,-5.988c-0.263,-0.172 -0.545,-0.314 -0.83,-0.451l-3.139,5.488l-3.154,-5.512c-0.287,0.135 -0.567,0.28 -0.831,0.45l3.44,6.013l-3.576,6.25c0.261,0.175 0.548,0.309 0.831,0.45l3.29,-5.749l3.275,5.725c0.281,-0.143 0.567,-0.28 0.826,-0.457l-3.558,-6.219Z" style="fill:#fff;fill-rule:nonzero;"/></g></svg>